<svg width="100" height="90" viewBox="0 0 100 90" fill="none" xmlns="http://www.w3.org/2000/svg">
<path d="M50.1106 73.0362C52.24 63.0527 52.2721 56.5791 52.1883 54.2587C52.1632 53.5835 52.6452 53.0164 53.2659 52.99C53.8976 52.9278 54.4094 53.4864 54.4337 54.1608C54.5223 56.5799 54.4909 63.3149 52.3019 73.5862C52.182 74.1498 51.7188 74.5313 51.2078 74.5313C51.1231 74.5313 51.0393 74.5219 50.9531 74.5006C50.3472 74.3482 49.971 73.6926 50.1105 73.0361L50.1106 73.0362ZM55.5185 73.9601C55.6376 74.0044 55.7591 74.0248 55.8783 74.0248C56.347 74.0248 56.7851 73.7038 56.9426 73.1946C57.9921 69.8195 58.721 65.8865 59.112 61.5022C59.4129 58.1218 59.246 52.8511 58.6041 45.3872C58.5453 44.7145 57.9896 44.2224 57.3806 44.2845C56.763 44.3484 56.3084 44.9427 56.3657 45.6137C56.9872 52.8213 57.158 58.0902 56.8759 61.267C56.502 65.4648 55.8076 69.2164 54.8139 72.4145C54.6148 73.0514 54.9315 73.7454 55.5185 73.9599L55.5185 73.9601ZM73.1969 48.1779C74.9932 50.5033 75.8241 54.0879 75.4776 58.0132C75.0551 62.7771 72.3754 69.2662 68.2434 71.9092C66.5482 72.9939 65.0151 73.3081 63.7838 73.561C62.6442 73.7943 61.9701 73.9586 61.5093 74.4431C60.4011 77.7902 59.3618 79.5503 58.8125 80.4706C58.3453 81.2582 57.0945 81.506 56.6736 81.506H40.6387C40.1222 81.506 38.8823 81.4464 38.2186 80.3429C35.4684 75.7253 33.8711 69.6246 33.1634 61.6761C33.1368 61.3772 33.1148 61.0673 33.096 60.7505C32.8264 60.8467 32.5396 60.9114 32.2284 60.9114C32.0113 60.9114 31.7848 60.8842 31.5512 60.8246C30.5747 60.5743 29.7784 59.9272 29.3072 58.9999C28.8229 58.048 28.7422 56.8849 29.0839 55.8103C29.7336 53.7659 30.0628 51.7624 30.0628 49.8569C30.0628 49.3869 29.9288 48.4698 29.7861 47.5001C29.4107 44.9433 28.8981 41.4419 29.6482 39.0058C31.026 34.5347 34.6345 33.7811 36.5727 33.3759C36.9348 33.3001 37.4325 33.198 37.5673 33.123C37.6096 33.0788 37.8675 32.9595 38.072 32.6982C39.3825 31.0395 42.1059 27.7963 47.0508 27.7963H47.1048C52.544 27.7963 55.332 30.7671 56.3743 32.2299C57.5977 32.1014 58.898 32.2895 60.0611 32.883C62.8622 34.3109 63.969 37.3984 63.0691 41.1602C63.1185 41.6183 63.3332 43.6236 63.5511 46.326C64.6241 45.7905 65.9713 45.369 67.5553 45.369C67.8038 45.369 68.0561 45.3767 68.3101 45.4005C70.217 45.5589 71.9114 46.5193 73.1967 48.178L73.1969 48.1779ZM63.9172 62.0168C63.7596 63.7827 63.5496 65.3843 63.3106 66.8667C63.6264 67.1605 64.0489 67.2831 64.295 67.2831C64.7401 67.2831 65.1751 67.1511 65.625 66.8769C67.9801 65.4473 69.8832 60.8527 70.1856 57.458C70.3909 55.1326 69.9841 53.0023 69.1259 51.8987C68.774 51.4406 68.3712 51.2005 67.8923 51.1605C66.5497 51.0481 65.8719 51.8161 65.4054 52.6889C65.3505 52.7902 65.3254 52.8498 65.2933 52.9188C65.0997 53.3462 64.7149 54.1491 64.0338 54.597C64.1145 57.2655 64.1059 59.8923 63.917 62.0167L63.9172 62.0168ZM33.0003 57.9177C32.9376 50.6999 33.969 41.5303 34.0207 41.074C34.0905 40.4618 34.5686 40.0029 35.136 40.0029H35.9566C36.905 40.0029 37.597 40.7913 38.3996 41.7041C39.3072 42.737 40.3371 43.9076 41.6223 43.9076C43.2024 43.9076 44.4917 42.6977 45.6305 41.63C46.5601 40.7564 47.3634 40.0029 48.3157 40.0029H61.0087C61.4234 37.674 60.7697 35.9404 59.1066 35.0934C57.4074 34.2257 55.0514 34.5859 54.2582 35.8367C54.0592 36.1237 53.7457 36.3016 53.4698 36.3408C53.1014 36.3936 52.8146 36.2173 52.5183 36.0172C52.2612 35.8427 51.9846 35.6996 51.6993 35.5898C50.631 35.1768 49.4828 35.3131 48.5564 36.0428C48.054 36.4379 47.2013 36.3978 46.8377 35.852C46.4724 35.308 46.7334 34.4641 47.235 34.0691C49.3935 32.3636 51.7071 32.8463 53.1399 33.5999C53.3915 33.3683 53.6705 33.1657 53.9722 32.9886C52.8805 31.8186 50.7385 30.2375 47.094 30.2375H47.0533C43.1376 30.2375 40.9526 32.7996 39.776 34.2879C39.4202 34.7392 39.1623 34.9631 38.8904 35.1913C38.435 35.5736 37.8323 35.6494 36.996 35.8239C35.1981 36.2003 32.7378 36.6882 31.7769 39.8055C31.2017 41.6728 31.6649 44.8216 32.0027 47.1282C32.1735 48.2887 32.3075 49.1998 32.3075 49.8623C32.3075 52.0386 31.9368 54.307 31.2063 56.6093C31.0723 57.0325 31.0966 57.4735 31.2745 57.8235C31.3882 58.0466 31.6162 58.3335 32.063 58.4485C32.4737 58.5549 32.8185 58.1768 33.0004 57.918L33.0003 57.9177ZM35.3994 61.2998C35.9151 67.0882 37.3141 74.3341 39.4678 77.9706C39.9584 78.7991 40.9867 79.0639 42.1443 79.0639H55.0677C56.219 79.0639 56.8217 78.9311 57.5859 77.8812C58.5633 76.5385 61.0964 68.3371 61.681 61.7817C62.1975 55.9567 61.2719 45.7605 60.9404 42.444H48.3156C48.1369 42.501 47.5373 43.0656 47.0976 43.4768C45.8068 44.6893 44.0354 46.3489 41.6215 46.3489C39.3729 46.3489 37.8713 44.64 36.774 43.3901C36.5687 43.1559 36.3187 42.8758 36.1141 42.6723C35.7645 46.1283 34.8946 55.6078 35.3993 61.2998L35.3994 61.2998ZM71.4748 49.748C70.5891 48.6044 69.43 47.9429 68.1242 47.8339C67.922 47.8143 67.7363 47.8092 67.5545 47.8092C65.947 47.8092 64.6576 48.3805 63.7477 48.9714C63.7884 49.5658 63.8261 50.1771 63.8621 50.8004C64.9092 49.2541 66.2666 48.5796 68.0646 48.7262C69.1485 48.819 70.1071 49.3733 70.8444 50.3287C72.1133 51.9592 72.6894 54.6448 72.4198 57.6913C72.0577 61.7733 69.8263 67.1222 66.7196 69.0081C65.9374 69.4841 65.1207 69.7251 64.2938 69.7251C63.8502 69.7251 63.3447 69.5948 62.8533 69.3709C62.7075 70.0768 62.5546 70.7426 62.3963 71.3752C62.713 71.296 63.0382 71.2288 63.3674 71.1615C64.4819 70.9316 65.746 70.6736 67.102 69.8068C70.4673 67.6535 72.8658 62.0007 73.2412 57.7807C73.5281 54.5025 72.8846 51.5733 71.4746 49.7478L71.4748 49.748ZM100 9.41365C100 12.2517 97.753 13.1491 96.5171 13.1491H85.3933V19.7948C91.0113 19.9012 94.4127 20.4172 94.5899 20.447C95.1785 20.5424 95.6919 21.1205 95.6386 21.7651C95.6315 21.8357 95.05 28.9243 95.6299 32.2883C96.2726 36.0092 95.6723 41.1623 95.648 41.3794C95.5751 41.9899 95.0978 42.4446 94.5327 42.4446H90.3427L94.2395 43.3285C94.7788 43.4502 95.1573 43.9815 95.133 44.5793C95.1307 44.6252 94.9418 49.2156 95.5265 52.6019C96.0132 55.4194 95.8502 64.2235 94.2913 65.9512C93.9386 66.3446 93.4675 66.5234 93.0036 66.4357C92.9024 66.4169 92.7112 66.4025 92.4439 66.3905C93.0788 66.8716 93.5639 67.4489 93.8202 68.1446C94.9481 71.2098 94.9183 74.1184 94.8846 77.1982C94.8775 77.7423 94.872 78.2992 94.872 78.8714C94.872 82.6068 95.0194 88.3202 95.0217 88.378C95.0296 88.7041 94.9183 89.0174 94.7129 89.2541C94.5076 89.4908 94.2223 89.6262 93.9229 89.6339C92.9745 89.656 77.9665 90 65.9253 90C59.6671 90 54.2097 89.9072 51.9454 89.6262C47.9334 89.1298 36.6238 89.2712 26.6525 89.398C8.71314 89.6237 8.69909 89.576 8.29058 88.3958C8.03978 87.6704 7.82425 80.9182 7.64556 68.3241C7.63694 67.6881 8.07818 67.1525 8.65896 67.0904L11.7525 66.7617L9.00848 66.2304C8.50531 66.1342 8.12441 65.6786 8.08364 65.1243C8.05778 64.7497 7.42999 55.8935 8.09383 51.3391C8.70517 47.1422 7.82108 42.448 7.81089 42.4003C7.74897 42.0767 7.80618 41.7396 7.97704 41.4654C8.1479 41.1921 8.40654 41.0056 8.70515 40.9494L11.1247 40.4904C8.46157 39.5129 8.1261 39.1085 7.9708 38.9007C7.66278 38.4861 7.1267 37.8611 8.07974 21.3205C8.11345 20.7381 8.38071 20.2647 8.9113 20.1864C9.11979 20.1591 12.3591 19.7164 16.8539 19.7019V13.1491H0V10.708H16.8539V8.26685H0V5.82573H16.8539V4.83462C16.8539 2.59687 18.2584 0.0493844 20.7869 0.0493844C23.3858 0.0493844 24.7199 2.59709 24.7199 4.83462L24.7191 5.82488H77.528V4.83377C77.528 2.59602 78.9474 0.494732 80.8864 0.0485346C81.0235 -0.0161782 81.9515 -0.0161782 82.0886 0.0485346C84.0277 0.49556 85.393 2.59689 85.393 4.83377V5.82488H96.5168C98.502 5.82488 99.9997 7.36774 99.9997 9.41386L100 9.41365ZM77.5281 19.9225V13.1491H24.7192V20.0827C24.7192 20.161 26.362 20.2479 27.2062 20.3552C36.0563 21.4868 62.3285 20.5076 74.5416 20.035C75.6161 19.995 76.4038 19.9567 77.5277 19.9226L77.5281 19.9225ZM24.7192 8.26666V10.7078H77.5281V8.26666H24.7192ZM19.1012 4.83353V19.7283C21.3482 19.7564 21.3482 19.8109 22.4722 19.8977V4.83361C22.4722 3.69263 22.0161 2.63009 20.7871 2.63009C19.5935 2.63179 19.1013 3.69357 19.1013 4.83361L19.1012 4.83353ZM93.3146 22.7255C91.3192 22.4922 86.554 22.0562 79.9485 22.2776C78.6184 22.3202 76.7813 22.3925 74.5813 22.4768C61.3726 22.9868 36.7844 23.9345 27.7595 22.7808C19.5418 21.7309 12.7834 22.2512 10.4064 22.5015C10.0537 28.8808 9.7998 35.6311 9.92127 37.3834C10.872 37.8619 13.7272 38.8445 16.1975 39.5998C16.9492 39.6253 20.8045 39.7607 22.5523 39.7794C25.1418 39.8075 26.6592 40.1294 26.7234 40.1447C27.3316 40.275 27.7258 40.917 27.6051 41.5778C27.4985 42.1602 27.0291 42.5629 26.504 42.5629C26.4318 42.5629 26.359 42.5552 26.2869 42.5399C26.272 42.5365 24.8878 42.2479 22.5302 42.2215C20.719 42.2019 16.826 42.0648 16.1019 42.0384L10.212 43.1479C10.4605 44.9496 10.7959 48.4227 10.3139 51.7222C9.8131 55.1682 10.1227 61.5915 10.2645 63.9962L20.1917 65.9128C20.7443 66.0193 21.1401 66.5523 21.1173 67.162C21.0946 67.7708 20.6635 68.2689 20.1047 68.3293L9.90809 69.4107C10.0014 75.5676 10.1824 84.3192 10.3564 86.9501C12.6034 87.1358 20.0091 87.0404 26.6248 86.9578C31.2342 86.8991 36.1262 86.8386 40.4699 86.8386C45.5925 86.8386 49.9519 86.9229 52.198 87.2022C58.0048 87.9208 86.6743 87.3486 92.7417 87.2184C92.6994 85.3119 92.6226 81.5817 92.6226 78.8723C92.6226 78.2899 92.6297 77.7245 92.6351 77.1693C92.6665 74.2164 92.6947 71.6654 91.7307 69.0506C91.0833 67.2906 85.4811 66.4698 81.9 66.4698C81.284 66.4698 80.7832 65.9316 80.7761 65.2624C80.7691 64.5931 81.2589 64.0439 81.8749 64.0286C83.4033 63.9928 90.4815 63.8336 92.7943 63.9715C93.3562 62.3308 93.8445 56.1176 93.3155 53.054C92.8523 50.377 92.8311 47.1414 92.8586 45.5092L86.5831 44.0881L76.1764 43.6317C75.6098 43.6061 75.1497 43.1284 75.1019 42.5145C75.0533 41.9015 75.4342 41.3455 75.9883 41.2169L81.1446 40.0291C81.2214 40.0121 81.3006 40.0036 81.379 40.0036H93.5202C93.6558 38.3568 93.8345 35.134 93.4222 32.7397C92.9308 29.894 93.1675 24.9787 93.3148 22.7257L93.3146 22.7255ZM83.1461 19.776V4.83528C83.1461 3.6943 82.4877 2.63175 81.461 2.63175C80.4343 2.63175 79.7759 3.69354 79.7759 4.83528V19.8425C79.7759 19.8399 79.7712 19.8374 79.8277 19.8365C81.0449 19.7957 82.0223 19.7786 83.1461 19.7761V19.776ZM97.753 9.41365C97.753 8.62178 97.1315 8.26587 96.517 8.26587L85.3932 8.26672V10.7078H96.517C96.7498 10.7078 97.753 10.4796 97.753 9.41361V9.41365ZM28.0902 66.8591H24.7192C24.0977 66.8591 23.5953 67.4049 23.5953 68.0801C23.5953 68.7553 24.0977 69.3011 24.7192 69.3011H28.0902C28.7117 69.3011 29.2141 68.7553 29.2141 68.0801C29.2133 67.4049 28.7109 66.8591 28.0902 66.8591ZM69.6632 80.2869C69.6632 80.9621 70.1656 81.5079 70.7871 81.5079H76.4051C77.0266 81.5079 77.529 80.9621 77.529 80.2869C77.529 79.6116 77.0266 79.0658 76.4051 79.0658H70.7871C70.1656 79.0658 69.6632 79.6116 69.6632 80.2869Z" fill="#F2F0F0"/>
</svg>
