<svg width="187" height="118" viewBox="0 0 187 118" fill="none" xmlns="http://www.w3.org/2000/svg">
<path d="M15.9474 21.5437L7.75853 37.0953C3.97643 44.278 2 52.2735 2 60.3911V116H37V60.3911C37 52.2735 35.0236 44.278 31.2415 37.0953L23.0526 21.5437M15.9474 21.5437V2H23.0526V21.5437M15.9474 21.5437H23.0526" stroke="black" stroke-width="3"/>
<path d="M52.64 77V75.416C53.856 75.352 54.688 75.08 55.136 74.6C55.584 74.088 55.824 73.4 55.856 72.536C55.92 71.64 55.952 70.632 55.952 69.512V48.776C55.952 48.136 55.968 47.528 56 46.952C56.032 46.344 56.064 45.8 56.096 45.32C55.52 45.352 54.944 45.384 54.368 45.416C53.792 45.448 53.216 45.48 52.64 45.512V43.4H63.44V44.984C62.256 45.016 61.424 45.288 60.944 45.8C60.496 46.312 60.24 47 60.176 47.864C60.144 48.728 60.128 49.736 60.128 50.888V71.48C60.128 72.344 60.112 73.08 60.08 73.688C60.08 74.296 60.048 74.808 59.984 75.224L68.96 75.08C70.976 75.048 72.496 74.408 73.52 73.16C74.576 71.912 75.104 69.88 75.104 67.064H76.736L76.448 77H52.64ZM95.5321 77C95.4361 76.456 95.3721 75.976 95.3401 75.56C95.3081 75.144 95.2601 74.712 95.1961 74.264C94.1081 75.352 92.9241 76.216 91.6441 76.856C90.3961 77.464 89.0681 77.768 87.6601 77.768C85.2281 77.768 83.4201 77.224 82.2361 76.136C81.0521 75.016 80.4601 73.656 80.4601 72.056C80.4601 70.584 80.9081 69.32 81.8041 68.264C82.7321 67.176 83.9161 66.296 85.3561 65.624C86.8281 64.92 88.4121 64.408 90.1081 64.088C91.8361 63.736 93.5001 63.576 95.1001 63.608V60.632C95.1001 59.512 95.0041 58.456 94.8121 57.464C94.6201 56.472 94.2041 55.656 93.5641 55.016C92.9241 54.376 91.9001 54.04 90.4921 54.008C89.5641 53.976 88.6041 54.152 87.6121 54.536C86.6521 54.92 85.9481 55.576 85.5001 56.504C85.7561 56.76 85.9161 57.064 85.9801 57.416C86.0761 57.736 86.1241 58.04 86.1241 58.328C86.1241 58.712 85.9641 59.16 85.6441 59.672C85.3241 60.152 84.7641 60.376 83.9641 60.344C83.2921 60.344 82.7801 60.12 82.4281 59.672C82.0761 59.192 81.9001 58.632 81.9001 57.992C81.9001 56.904 82.3001 55.928 83.1001 55.064C83.9321 54.2 85.0681 53.512 86.5081 53C87.9481 52.488 89.5801 52.232 91.4041 52.232C94.0921 52.232 96.0761 52.952 97.3561 54.392C98.6361 55.8 99.2601 58.04 99.2281 61.112C99.2281 62.296 99.2281 63.496 99.2281 64.712C99.2281 65.896 99.2121 67.096 99.1801 68.312C99.1801 69.496 99.1801 70.696 99.1801 71.912C99.1801 72.424 99.1641 72.936 99.1321 73.448C99.1001 73.96 99.0521 74.536 98.9881 75.176C99.5641 75.144 100.124 75.112 100.668 75.08C101.244 75.048 101.82 75.016 102.396 74.984V77H95.5321ZM95.1001 65.24C94.0121 65.272 92.8601 65.416 91.6441 65.672C90.4601 65.896 89.3561 66.248 88.3321 66.728C87.3401 67.208 86.5241 67.848 85.8841 68.648C85.2761 69.416 84.9881 70.36 85.0201 71.48C85.0841 72.664 85.4681 73.56 86.1721 74.168C86.9081 74.744 87.7721 75.032 88.7641 75.032C90.0761 75.032 91.2121 74.792 92.1721 74.312C93.1641 73.8 94.1401 73.096 95.1001 72.2C95.0681 71.848 95.0521 71.464 95.0521 71.048C95.0521 70.632 95.0521 70.2 95.0521 69.752C95.0521 69.592 95.0521 69.08 95.0521 68.216C95.0841 67.352 95.1001 66.36 95.1001 65.24ZM116.69 77.48L105.794 51.944C105.09 50.312 104.594 49 104.306 48.008C104.018 46.984 103.826 46.12 103.73 45.416C103.282 45.448 102.834 45.464 102.386 45.464C101.938 45.464 101.49 45.48 101.042 45.512V43.4H112.178L112.13 45.032C110.53 45.128 109.57 45.624 109.25 46.52C108.93 47.384 109.09 48.616 109.73 50.216C110.498 52.104 111.234 53.928 111.938 55.688C112.642 57.448 113.426 59.352 114.29 61.4C115.058 63.192 115.794 64.92 116.498 66.584C117.234 68.216 117.794 69.576 118.178 70.664H118.274C118.626 69.544 118.978 68.472 119.33 67.448C119.714 66.424 120.162 65.208 120.674 63.8C121.634 61.112 122.434 58.84 123.074 56.984C123.746 55.128 124.322 53.544 124.802 52.232C125.282 50.92 125.682 49.8 126.002 48.872C126.29 48.04 126.546 47.336 126.77 46.76C126.994 46.184 127.202 45.704 127.394 45.32C126.786 45.352 126.178 45.384 125.57 45.416C124.962 45.448 124.338 45.48 123.698 45.512V43.4H133.442V44.984C132.034 45.048 130.946 45.416 130.178 46.088C129.442 46.76 128.77 47.96 128.162 49.688C128.098 49.848 128.018 50.072 127.922 50.36C127.826 50.616 127.666 51.048 127.442 51.656C127.218 52.264 126.898 53.16 126.482 54.344C126.066 55.496 125.49 57.064 124.754 59.048C124.05 61.032 123.138 63.528 122.018 66.536C120.93 69.544 119.602 73.192 118.034 77.48H116.69ZM144.131 77.768C142.403 77.768 140.947 77.448 139.763 76.808C138.611 76.168 137.731 75.08 137.123 73.544C136.547 72.008 136.259 69.928 136.259 67.304V58.76C136.259 58.248 136.259 57.736 136.259 57.224C136.291 56.712 136.355 56.184 136.451 55.64C135.907 55.672 135.347 55.704 134.771 55.736C134.227 55.736 133.683 55.752 133.139 55.784V53.816H134.627C136.003 53.816 136.995 53.688 137.603 53.432C138.243 53.144 138.739 52.84 139.091 52.52H140.483V67.16C140.483 69.912 140.867 71.976 141.635 73.352C142.435 74.696 143.779 75.352 145.667 75.32C146.883 75.288 148.035 74.92 149.123 74.216C150.243 73.48 151.139 72.616 151.811 71.624V59.288C151.811 58.52 151.827 57.864 151.859 57.32C151.891 56.744 151.955 56.184 152.051 55.64C151.475 55.672 150.899 55.704 150.323 55.736C149.747 55.736 149.171 55.752 148.595 55.784V53.816H150.083C151.459 53.816 152.451 53.688 153.059 53.432C153.699 53.144 154.195 52.84 154.547 52.52H155.939L155.891 70.664C155.891 71.176 155.875 71.896 155.843 72.824C155.811 73.752 155.763 74.536 155.699 75.176C156.275 75.144 156.851 75.112 157.427 75.08C158.003 75.048 158.579 75.016 159.155 74.984V77H152.291C152.195 76.456 152.115 75.944 152.051 75.464C152.019 74.984 151.987 74.536 151.955 74.12C150.963 75.112 149.763 75.976 148.355 76.712C146.947 77.416 145.539 77.768 144.131 77.768ZM174.259 77.768C172.051 77.768 170.051 77.256 168.259 76.232C166.499 75.176 165.107 73.704 164.083 71.816C163.059 69.896 162.547 67.64 162.547 65.048C162.547 62.808 163.043 60.712 164.035 58.76C165.059 56.808 166.483 55.24 168.307 54.056C170.131 52.84 172.243 52.232 174.643 52.232C175.987 52.232 177.235 52.456 178.387 52.904C179.571 53.32 180.611 53.976 181.507 54.872C182.403 55.736 183.107 56.84 183.619 58.184C184.131 59.496 184.387 61.048 184.387 62.84L167.491 63.128C167.491 65.56 167.747 67.704 168.259 69.56C168.803 71.384 169.667 72.808 170.851 73.832C172.035 74.824 173.555 75.32 175.411 75.32C176.403 75.32 177.411 75.144 178.435 74.792C179.491 74.44 180.467 73.96 181.363 73.352C182.259 72.744 182.979 72.072 183.523 71.336L184.675 72.296C183.811 73.64 182.771 74.712 181.555 75.512C180.339 76.312 179.091 76.888 177.811 77.24C176.531 77.592 175.347 77.768 174.259 77.768ZM167.635 61.112H179.875C179.875 59.96 179.699 58.856 179.347 57.8C179.027 56.712 178.483 55.832 177.715 55.16C176.947 54.456 175.939 54.104 174.691 54.104C172.835 54.104 171.283 54.664 170.035 55.784C168.819 56.872 168.019 58.648 167.635 61.112Z" fill="black"/>
</svg>
