<svg width="94" height="100" viewBox="0 0 94 100" fill="none" xmlns="http://www.w3.org/2000/svg">
<path d="M93.6275 98.0605C93.5793 98.0186 88.8061 93.7116 88.4378 87.8624C88.0572 81.8247 92.7653 77.3131 92.8134 77.2689C93.0317 77.0612 93.1598 76.7744 93.1621 76.4737C93.1668 76.1722 93.0472 75.8823 92.8336 75.6707L87.2579 70.153C89.0088 65.4538 89.9681 60.3766 89.9681 55.0775C89.9681 32.5575 72.6895 13.9959 50.6667 11.8808L51.7169 3.32262C51.7224 3.27844 51.7255 3.09476 51.7255 3.04903C51.7247 1.44545 50.4166 0 48.8079 0H44.8992C43.2913 0 41.9825 1.44549 41.9825 3.04982C41.9825 3.09555 41.9856 3.21103 41.991 3.25522L43.0412 11.7878C20.6543 13.5387 2.97028 32.278 2.97028 55.0599C2.97028 60.6465 4.04612 65.9943 5.98112 70.9037L1.16747 75.6648C0.952316 75.8772 0.83191 76.1702 0.836563 76.4724C0.841216 76.7747 0.967839 77.0622 1.18766 77.2692C1.23582 77.3134 5.94383 81.7948 5.56163 87.8627C5.19656 93.685 0.419488 98.0197 0.371167 98.0616C0.0270515 98.3685 -0.0910076 98.8568 0.0728872 99.2869C0.239892 99.7156 0.653142 100 1.11377 100H19.35C19.6809 100 19.9939 99.8535 20.206 99.6001C21.2981 98.291 24.674 94.908 27.6839 94.2165C33.3729 96.9463 39.7447 98.4778 46.4701 98.4778C53.3383 98.4778 59.8369 96.8758 65.6183 94.0344C65.7053 94.0708 65.7884 94.1157 65.8863 94.1297C69.6234 94.6606 73.7533 99.5512 73.7947 99.6008C74.0068 99.8534 74.3198 99.9999 74.6507 99.9999H92.8869C93.3491 99.9999 93.7631 99.7155 93.9278 99.283C94.0909 98.8536 93.9721 98.3653 93.6272 98.0592L93.6275 98.0605ZM58.7069 94.4093L58.0435 91.916C63.8405 90.0993 69.048 86.9479 73.3186 82.8346L75.1394 84.6598C70.551 89.0869 64.9473 92.4708 58.7067 94.4093L58.7069 94.4093ZM28.7218 92.2475C28.5501 92.184 28.3319 92.0623 28.1229 91.9484C24.5016 90.1472 21.1833 87.8305 18.2602 85.0938L20.0887 83.2771C24.4929 87.3818 29.855 90.4704 35.8005 92.1747L35.127 94.6611C32.9116 94.0286 30.7694 93.2241 28.7218 92.2475H28.7218ZM6.88969 66.7216L9.3855 66.0605C11.1557 72.0006 14.3234 77.3429 18.5055 81.7128L16.677 83.5295C12.1795 78.8427 8.77873 73.105 6.88963 66.7216L6.88969 66.7216ZM35.3734 15.4216L36.0368 17.9119C30.1217 19.5675 24.7721 22.5856 20.3624 26.6166L18.5416 24.7913C23.269 20.4486 29.014 17.1958 35.3736 15.4216L35.3734 15.4216ZM46.4696 13.8979C49.9862 13.8979 53.4007 14.3412 56.6609 15.1713L55.9859 17.66C52.9402 16.8888 49.7522 16.4757 46.4689 16.4757C43.6307 16.4757 40.8653 16.7912 38.1986 17.3725L37.5353 14.8814C40.4141 14.2435 43.4007 13.8978 46.4698 13.8978L46.4696 13.8979ZM75.1144 25.4749L73.2851 27.2917C69.0416 23.2125 63.8754 20.0861 58.1272 18.2692L58.8029 15.7767C64.9946 17.7159 70.5556 21.0803 75.1143 25.475L75.1144 25.4749ZM86.0522 43.4415L83.5564 44.1027C81.8451 38.3556 78.829 33.1659 74.848 28.876L76.6765 27.0592C80.9721 31.6678 84.2212 37.2528 86.052 43.4415L86.0522 43.4415ZM87.7409 55.0775C87.7409 58.1902 87.3812 61.219 86.7233 64.1355L84.2291 63.4635C84.8318 60.7625 85.1589 57.9584 85.1589 55.0782C85.1589 52.0415 84.7946 49.0892 84.1265 46.2527L86.6231 45.5916C87.3463 48.6383 87.7409 51.8123 87.7409 55.0776L87.7409 55.0775ZM72.9667 80.0003H52.6638C52.8199 79.4725 52.9286 78.9261 52.9286 78.3494C52.9286 75.9746 51.5102 73.9371 49.4813 72.9968C49.7485 72.3047 50.133 71.2235 50.488 69.8841C50.5579 69.6198 50.6496 69.3206 50.7482 68.9943C50.7568 68.9626 50.7684 68.9223 50.7777 68.8889H80.1921C78.4723 73.0596 76.0279 76.7743 72.9666 80.0001L72.9667 80.0003ZM45.8908 84.1468C46.2528 84.2157 46.6233 84.2591 47.0047 84.2591C47.3853 84.2591 47.7566 84.2157 48.1186 84.1468V87.7779H45.8916L45.8908 84.1468ZM47.0047 82.037C44.9673 82.037 43.3096 80.3823 43.3096 78.3493C43.3096 76.3156 44.9672 74.66 47.0047 74.66C49.0422 74.66 50.7006 76.3147 50.7006 78.3477C50.7006 80.3815 49.0422 82.037 47.0047 82.037ZM19.9547 80.0001C16.8912 76.7588 14.466 73.0556 12.7455 68.8889H42.9294C42.9395 68.923 42.9519 68.9657 42.962 68.9997C43.0615 69.3253 43.1523 69.6229 43.2215 69.8856C43.5982 71.3009 44.0107 72.4456 44.2794 73.1323C42.3872 74.1197 41.0799 76.076 41.0799 78.35C41.0799 78.9266 41.1886 79.473 41.3448 80.0008L19.9541 80.0016L19.9547 80.0001ZM10.0206 55.5555H82.9182C82.8677 59.4355 82.2043 63.1681 81.0221 66.6667H51.379C51.5787 65.7513 51.7263 64.7391 51.7263 63.6526C51.7263 60.0835 49.8286 57.6863 47.0059 57.6863C44.4254 57.6863 42.5838 59.4627 42.1115 62.2226H39.8613C38.5182 61.6793 36.5732 61.3189 35.8703 61.3189C34.7556 61.3189 33.8515 62.2203 33.8515 63.3332C33.8515 64.4454 34.7557 65.3475 35.8703 65.3475C36.5733 65.3475 38.5198 64.9886 39.8613 64.4438H42.034C42.0852 65.2281 42.1846 65.9815 42.3322 66.6658L11.9156 66.6666C11.9156 66.6666 10.0553 61.8977 10.0227 55.5554L10.0206 55.5555ZM47.0053 72.4378C46.8072 72.4378 46.62 72.4765 46.4274 72.4959C46.1928 71.9115 45.7625 70.7667 45.3772 69.3151C45.3003 69.0283 45.2032 68.7059 45.0952 68.354C44.7014 67.0605 44.2113 65.4514 44.2113 63.6526C44.2113 62.7737 44.4125 59.9083 47.0054 59.9083C49.4296 59.9083 49.4988 63.2697 49.4988 63.6526C49.4988 65.4492 49.0102 67.0574 48.6171 68.3503C48.5092 68.7045 48.4097 69.0292 48.3344 69.3168C47.9522 70.7537 47.5304 71.8822 47.2951 72.4682C47.198 72.4627 47.1048 72.4379 47.0053 72.4379L47.0053 72.4378ZM46.4709 18.6953C55.6857 18.6953 64.1068 22.1311 70.5321 27.7767H22.4096C28.8358 22.1313 37.2568 18.6953 46.4709 18.6953ZM20.087 29.9988H72.8587C72.8587 29.9988 77.395 34.698 79.6384 39.9985L13.299 39.9992C15.6844 34.2002 20.0864 29.9988 20.0864 29.9988L20.087 29.9988ZM12.3566 42.2215H80.5792C80.5792 42.2215 82.6391 47.4997 82.8863 53.3327H10.0523C10.238 49.4295 11.1957 44.9644 12.3562 42.2215H12.3566ZM22.2293 82.2217H42.5501C42.5555 82.2217 42.5602 82.2187 42.5649 82.2187C42.8989 82.6 43.2632 82.9518 43.6826 83.2378C43.6803 83.2712 43.6632 83.2991 43.6632 83.3332V88.8888C43.6632 89.5034 44.1611 90.0002 44.7771 90.0002H49.231C49.847 90.0002 50.3449 89.5034 50.3449 88.8888V83.3332C50.3449 83.2998 50.3278 83.2712 50.3263 83.2378C50.7473 82.9526 51.11 82.6 51.444 82.2187C51.4495 82.2187 51.4526 82.2217 51.458 82.2217H70.7088C64.2608 87.9611 55.7676 91.4573 46.4706 91.4573C37.1718 91.4573 28.6778 87.9611 22.2304 82.2217H22.2293ZM76.6972 83.0735L74.8764 81.2483C78.9436 76.8568 81.9964 71.5236 83.6797 65.6186L86.1731 66.2906C84.3687 72.6367 81.0791 78.3651 76.6973 83.0736L76.6972 83.0735ZM44.2125 2.99762C44.2389 2.64186 44.538 2.22178 44.8992 2.22178H48.8078C49.1706 2.22178 49.4696 2.64186 49.4953 2.99762L48.4427 11.6558C47.7879 11.6271 47.1308 11.6403 46.4697 11.6403C46.0674 11.6403 45.6704 11.6078 45.2712 11.6178L44.2125 2.99762ZM16.9458 26.343L18.7673 28.1683C14.6325 32.4048 11.4626 37.5798 9.61467 43.3416L7.11668 42.6673C9.08656 36.4629 12.4951 30.895 16.946 26.3432L16.9458 26.343ZM6.49821 44.8017L8.99242 45.4752C8.20166 48.546 7.77987 51.7639 7.77987 55.0788C7.77987 58.1185 8.14495 61.0731 8.81453 63.9122L6.31793 64.5733C5.5932 61.5235 5.19783 58.3465 5.19783 55.0774C5.19783 51.5308 5.6499 48.0873 6.49815 44.8018L6.49821 44.8017ZM18.7464 97.7782H3.50527C5.15201 95.5562 7.51653 92.1514 7.78459 87.8791C8.1318 82.3692 5.02152 78.16 3.50527 76.4247L6.91918 73.0826C10.7431 81.3981 17.1221 88.1986 25.0514 92.6938C22.1969 94.0982 19.6372 96.6667 18.7464 97.7782ZM37.2849 95.2143L37.9583 92.7264C40.6987 93.3433 43.5449 93.6789 46.4694 93.6789C49.7211 93.6789 52.8779 93.272 55.8971 92.5148L56.5596 95.0051C53.3291 95.8181 49.9494 96.2552 46.4694 96.2552C43.311 96.256 40.2398 95.8879 37.2848 95.2144L37.2849 95.2143ZM75.1565 97.7782C74.2041 96.7195 71.4614 93.8782 68.3605 92.5575C71.6781 90.6207 74.7192 88.2644 77.4029 85.5517C77.441 85.523 77.4852 85.5083 77.5202 85.4742C77.5645 85.43 77.5862 85.3735 77.6212 85.3231C81.2596 81.5927 84.2322 77.2175 86.3482 72.3827L90.4939 76.4851C88.9769 78.2197 85.8666 82.4895 86.2132 87.9993C86.4812 92.2713 88.6949 95.7484 90.341 97.7773L75.1568 97.7766L75.1565 97.7782ZM22.5061 34.4445H32.5279C33.1439 34.4445 33.6418 33.9476 33.6418 33.333C33.6418 32.7184 33.1439 32.2216 32.5279 32.2216H22.5061C21.8901 32.2216 21.3922 32.7184 21.3922 33.333C21.3922 33.9476 21.8901 34.4445 22.5061 34.4445ZM64.8221 46.6664H71.5039C72.1199 46.6664 72.6178 46.1695 72.6178 45.5549C72.6178 44.9403 72.1199 44.4435 71.5039 44.4435H64.8221C64.2061 44.4435 63.7082 44.9403 63.7082 45.5549C63.7082 46.1695 64.2061 46.6664 64.8221 46.6664ZM67.049 49.9999C67.049 50.6145 67.5469 51.1113 68.1629 51.1113H78.1847C78.8007 51.1113 79.2986 50.6145 79.2986 49.9999C79.2986 49.3853 78.8007 48.8885 78.1847 48.8885H68.1629C67.5469 48.8885 67.049 49.3853 67.049 49.9999ZM28.0738 75.5556H22.5059C21.8899 75.5556 21.392 76.0524 21.392 76.6671C21.392 77.2817 21.8899 77.7785 22.5059 77.7785H28.0738C28.6898 77.7785 29.1877 77.2817 29.1877 76.6671C29.1869 76.0524 28.6898 75.5556 28.0738 75.5556Z" fill="#F2F0F0"/>
</svg>
