<svg width="71" height="100" viewBox="0 0 71 100" fill="none" xmlns="http://www.w3.org/2000/svg">
<path d="M28.4006 60.4401V83.5169C28.4006 84.1248 27.9122 84.6162 27.308 84.6162C26.7037 84.6162 26.2153 84.1248 26.2153 83.5169L26.2161 60.4401C26.2161 59.8322 26.7045 59.3409 27.3087 59.3409C27.9122 59.3417 28.4006 59.833 28.4006 60.4401H28.4006ZM29.1511 44.2051C28.569 44.0456 27.9701 44.4051 27.8192 44.9931C26.9148 48.5052 26.4394 51.5239 26.2794 54.9887C26.2504 55.5943 26.716 56.045 27.3194 56.045H27.372C27.9511 56.045 28.4349 55.6794 28.4623 55.0899C28.6154 51.7824 29.0696 48.8556 29.9343 45.4975C30.0844 44.9096 29.734 44.3569 29.1511 44.2051L29.1511 44.2051ZM71 52.8799V91.0332C71 93.2408 69.4891 95.6048 67.2421 95.6048H49.2567C49.1485 97.742 47.7549 100 45.6033 100H25.4523C23.3028 100 21.9208 97.7418 21.8125 95.6048H3.58257C1.34022 95.6048 0 93.2806 0 91.0332V52.8799C0 45.4131 1.21681 39.6451 4.8237 29.9522C7.57201 22.546 8.38266 13.4833 8.60736 9.758C8.32849 9.60929 8.08772 9.43912 7.90485 9.16777C7.54217 8.62584 7.46978 8.03253 7.71285 7.42621L8.12125 6.59453H7.69609C7.3258 6.59453 6.98063 6.18213 6.77873 5.86939C6.57681 5.55587 6.54863 4.93882 6.70025 4.59924L7.90944 1.81668C8.3605 0.808697 9.36091 0.00077177 10.4596 0.00077177H17.0626C18.1613 0.00077177 19.1617 0.854693 19.6127 1.86268L20.8211 4.76926C20.9727 5.1096 20.9423 5.59557 20.7426 5.90909C20.5415 6.22184 20.1956 6.59437 19.8253 6.59437H19.4001L19.8077 7.42606C20.0516 8.03237 19.9784 8.53369 19.6157 9.07562C19.391 9.41059 19.0671 9.64899 18.7037 9.79308C18.7951 11.3767 19.0443 14.725 19.6508 18.6818L19.6615 18.6826V18.7508C20.2527 22.5881 21.18 26.9872 22.6292 30.8926C23.5618 33.4146 24.3215 35.6351 24.9463 37.6642C25.3821 36.3795 25.8591 35.0388 26.3924 33.6008C29.1452 26.1846 30.036 17.0153 30.3019 13.1613C30.1206 13.0287 29.9545 12.8877 29.8257 12.6953C29.4607 12.1526 29.3899 11.4888 29.6322 10.8801L30.0482 9.89052H29.6047C29.2344 9.89052 28.8893 9.72112 28.6874 9.40838C28.4854 9.09486 28.4573 8.72157 28.6089 8.38123L29.8287 4.69109C30.2851 3.6762 31.2901 3.29677 32.3933 3.29677H39.0564C40.1619 3.29677 41.1676 3.68923 41.621 4.70259L42.8408 8.26851C42.9924 8.60886 42.9635 9.02662 42.7623 9.34011C42.5612 9.65287 42.2145 9.89048 41.845 9.89048H41.4015L41.8175 10.8816C42.0621 11.4902 41.989 12.1303 41.624 12.6738C41.4099 12.9911 41.1082 13.2241 40.7676 13.3713C41.0503 17.3434 41.9593 26.321 44.6603 33.6008C45.1434 34.9001 45.5822 36.1326 45.9845 37.3039C46.5796 35.3922 47.3042 33.3041 48.1957 30.9126C51.2206 22.7645 51.9741 12.5136 52.1327 9.63917C51.9285 9.50043 51.7403 9.38009 51.5986 9.167C51.2359 8.62507 51.1635 8.03176 51.4065 7.42544L51.8134 6.59375H51.3882C51.018 6.59375 50.5615 6.33467 50.3596 6.02115C50.1577 5.70763 50.2408 4.93728 50.3924 4.59771L51.6016 1.81514C52.0527 0.807925 53.0531 0 54.1517 0H60.7547C61.8534 0 62.8539 0.853921 63.3049 1.8619L64.5133 4.76849C64.6649 5.10883 64.7358 5.70826 64.5361 6.02252C64.3358 6.33449 63.8877 6.5936 63.5174 6.5936H63.0923L63.4999 7.42529C63.7437 8.0316 63.6706 8.53292 63.3079 9.07485C63.045 9.46578 62.6549 9.73866 62.2145 9.86131C62.4835 13.6802 63.3703 22.6224 66.0789 29.9279C69.7574 39.8453 70.9995 45.6357 70.9995 52.8792L71 52.8799ZM54.303 9.89143C54.213 12.089 53.9761 14.8025 53.3955 18.6828H61.0231C60.4341 15.0311 60.1538 12.089 60.0257 9.89143H54.303ZM51.2728 28.5419L57.4322 34.9057L63.2938 28.5334C62.49 25.9946 61.8759 23.3708 61.4072 20.8804H53.0382C52.6047 23.3494 52.031 25.9771 51.2729 28.5419H51.2728ZM53.0786 4.39754H61.8301L61.3135 2.9028C61.2152 2.68204 60.9958 2.1999 60.755 2.1999H54.152C53.912 2.1999 53.6918 2.68204 53.5935 2.90357L53.0786 4.39754ZM54.1697 6.59513L53.5601 7.69435H61.3463L60.7368 6.59513H54.1697ZM32.4698 13.1889C32.3365 15.3865 32.0622 18.5056 31.5129 21.9803L39.5421 21.9795C38.9935 18.5048 38.7192 15.3857 38.5866 13.1881L32.4698 13.1889ZM29.2072 32.1084L35.7042 38.7895L41.844 32.097C41.018 29.4716 40.3925 26.752 39.9186 24.1773H31.1366C30.6612 26.756 30.0341 29.4801 29.2074 32.1086L29.2072 32.1084ZM31.2948 7.69521H40.1546L39.6281 5.64243C39.5275 5.41708 39.3028 5.49679 39.0567 5.49679H32.3936C32.1467 5.49679 31.9227 5.4163 31.8214 5.6432L31.2948 7.69521ZM32.4057 9.89281L31.784 10.992H39.5587L39.0451 9.89281H32.4057ZM7.59871 28.5617L13.7398 34.907L19.561 28.5786C18.7976 26.0022 18.2215 23.3616 17.7865 20.8818H9.47149C9.01204 23.3806 8.40326 26.0144 7.59866 28.5617H7.59871ZM17.4285 18.6842C16.8471 14.8041 16.6102 12.0904 16.521 9.89281H10.7868C10.6733 12.0904 10.4142 15.0347 9.84432 18.6842H17.4285ZM9.38561 4.39832H18.1371L17.6205 2.90359C17.5222 2.68283 17.3028 2.20069 17.062 2.20069H10.4591C10.219 2.20069 9.99884 2.68283 9.90055 2.90435L9.38561 4.39832ZM10.4767 6.59592L9.86716 7.69513H17.6533L17.0438 6.59592H10.4767ZM3.58192 93.4088H21.8454V56.8862C21.8454 51.6354 22.2706 47.1489 23.9583 41.4245C23.2299 38.6374 22.0054 35.5077 20.5821 31.6604C20.496 31.4289 20.4137 31.1943 20.3306 30.9605L14.5637 37.1365C14.3595 37.3573 14.0448 37.5489 13.7446 37.5489C13.7393 37.5489 13.7499 37.5489 13.7446 37.5489C13.4497 37.5489 13.1853 37.3734 12.9788 37.1603L6.81181 30.8556C3.35486 40.1758 2.18375 45.7531 2.18375 52.8826V91.0359C2.18375 92.1581 2.75748 93.4091 3.5819 93.4091L3.58192 93.4088ZM46.9679 56.8862C46.9679 51.6815 46.5481 47.2378 44.7856 41.4237C44.7856 41.4237 43.5505 36.8904 42.6537 34.4696L36.527 41.2642C36.322 41.4841 36.0378 41.7609 35.7392 41.7609H35.7239C35.4291 41.7609 35.1616 41.4949 34.9551 41.2818L28.4247 34.4712C27.467 37.0583 26.7675 39.0051 26.0673 41.4711C25.7419 42.6179 24.0292 49.6936 24.0292 56.8861V95.4025C24.0292 96.4235 24.4345 97.8047 25.4509 97.8047H45.602C46.6177 97.8047 46.9681 96.4234 46.9681 95.4017L46.9679 56.8862ZM68.814 52.8819C68.814 45.98 67.62 40.4051 64.0983 30.8784L58.2543 37.1356C58.0501 37.3564 57.7583 37.5243 57.4581 37.5243C57.1488 37.5243 56.8463 37.3717 56.6398 37.1586L50.462 30.8731C50.3706 31.1368 50.2174 31.3998 50.1199 31.6611C48.7347 35.3766 47.6369 38.3768 46.945 41.0159C48.7256 46.9366 49.1523 51.5119 49.1523 56.8861V93.4087H67.2404C68.1273 93.4087 68.8131 92.1332 68.8131 91.0347L68.814 52.8819ZM7.2587 40.7999C6.67734 40.6512 6.07922 40.9984 5.92532 41.5856C4.84796 45.7325 4.36869 49.5567 4.36869 53.9811V72.5303C4.36869 73.1382 4.85709 73.6295 5.46131 73.6295C6.06553 73.6295 6.55393 73.1382 6.55393 72.5303L6.55316 53.9811C6.55316 49.7514 7.01186 46.0997 8.03969 42.1413C8.19284 41.5549 7.84312 40.9539 7.25871 40.7999H7.2587Z" fill="#F2F0F0"/>
</svg>
