<svg width="54" height="100" viewBox="0 0 54 100" fill="none" xmlns="http://www.w3.org/2000/svg">
<path d="M51.8598 49.9908C52.3575 47.7436 52.4611 45.4924 52.1303 43.3333C51.5382 39.4748 49.5741 36.2328 46.602 34.1352C44.6503 27.3719 38.0415 24.9418 35.1175 23.8698L34.4922 23.6375C32.406 22.8442 31.3301 20.4126 31.0163 18.4022C30.6484 16.0323 31.2134 13.7944 32.4246 12.8329C35.5204 10.3727 39.467 9.27147 39.5064 9.2606L40.3505 9.02908L40.3219 8.15627C40.3165 7.9672 40.1294 3.48973 36.7548 0.56567L36.1032 0L35.3951 0.492355C35.3519 0.522451 30.997 3.54227 29.1791 4.4135C25.0987 6.36362 24.6016 11.3936 24.2029 15.4351L24.1233 16.223C23.7577 19.7698 20.941 23.2903 17.7109 24.238C15.9146 24.7658 9.83229 26.9019 6.9623 32.2654C6.1909 33.7077 5.74025 35.2511 5.57717 36.878C4.37291 37.9345 0.427053 41.7976 0.031301 47.4227C-0.114787 49.5055 0.251596 51.5746 1.10725 53.6179C0.33971 55.5572 -1.92203 62.9186 3.96477 70.7707C3.6757 73.3761 3.35569 83.3019 13.7727 90.8466L14.5627 91.42L15.232 90.7085C15.508 90.4152 15.7669 90.1335 16.0135 89.8611C17.1234 92.5343 19.8388 97.319 25.7118 99.7762L26.2451 100L26.7328 99.6913C32.693 95.9223 35.0305 91.9417 35.825 90.1968C36.3545 90.5966 36.9334 90.967 37.5781 91.2765L38.1191 91.5365L38.6332 91.2271C46.3224 86.5868 52.1422 77.2976 49.4135 70.193C53.5356 64.287 56.013 56.5901 51.8598 49.9887L51.8598 49.9908ZM42.9577 74.1918C39.947 72.7247 36.972 69.0584 35.8095 67.5188C38.851 63.2272 39.7709 59.1813 40.0468 57.1855C41.486 58.2019 43.1208 59.1534 44.9272 59.9266C44.8653 61.1953 44.5879 63.9473 43.3735 66.1096C43.0729 66.6421 43.2638 67.3166 43.7979 67.6152C43.9695 67.7117 44.155 67.7572 44.339 67.7572C44.727 67.7572 45.1026 67.5535 45.3067 67.1916C46.9222 64.3161 47.134 60.7701 47.1587 59.5879C48.7943 57.5282 50.0643 55.3189 50.9353 53.0584C53.8756 60.568 48.1033 69.5407 42.9578 74.1913L42.9577 74.1918ZM26.0601 88.4515C20.0975 85.5476 16.3943 76.4368 15.449 73.8654C17.066 72.5496 17.9171 71.1983 18.3414 70.0385C20.0867 72.0959 22.2587 73.9541 24.9471 75.2692L24.9463 80.226C24.9463 80.838 25.4418 81.3326 26.0547 81.3326C26.6677 81.3326 27.1631 80.838 27.1631 80.226V75.4522C30.248 73.5561 32.6093 71.4463 34.405 69.331C35.1432 70.2779 36.2678 71.6231 37.612 72.9264C37.1374 74.4567 34.0803 83.448 26.0602 88.4517L26.0601 88.4515ZM26.0539 43.7164C26.6669 43.7164 27.1624 43.2209 27.1624 42.6097V34.0629C28.808 36.9615 31.2954 39.5128 35.6423 41.094C34.7256 44.268 31.6423 53.4207 25.6727 57.084C18.9899 52.5864 17.0837 45.5462 16.555 42.4926C19.762 40.882 22.7139 38.1848 24.9446 34.6999V42.6107C24.9461 43.2211 25.4416 43.7166 26.0538 43.7166L26.0539 43.7164ZM24.9463 59.2486V64.737C24.9463 65.349 25.4417 65.8436 26.0547 65.8436C26.6677 65.8436 27.1631 65.349 27.1631 64.737V58.7555C29.4318 57.4421 32.0885 54.2063 33.7542 51.3362C34.7018 52.486 35.8473 53.8474 37.9303 55.5489L37.9497 55.8862C37.9473 55.8862 37.7727 66.319 26.0617 73.5376C16.9339 69.1728 14.2014 57.1233 13.8622 55.4533C15.4491 53.9739 16.6812 52.5285 17.4788 51.5006C19.0819 54.2332 21.4502 57.0298 24.9463 59.2486H24.9463ZM49.94 43.6678C50.648 48.2804 49.1067 53.4145 45.7003 57.8641C39.9835 55.3816 36.0839 50.7504 34.8945 49.2071C36.3894 46.1835 37.31 43.3382 37.7621 41.757C39.7757 42.2725 42.1447 42.5997 44.9019 42.7162C45.2118 43.8406 45.6787 46.2375 44.8617 48.5851C44.6599 49.1623 44.9668 49.7928 45.5442 49.9935C45.664 50.0351 45.7877 50.0552 45.9075 50.0552C46.3666 50.0552 46.7948 49.7689 46.9533 49.3121C48.1421 45.8949 47.1983 42.5433 46.859 41.5425C47.1017 40.1055 47.189 38.782 47.1419 37.5674C48.5989 39.2081 49.5752 41.2939 49.94 43.6678L49.94 43.6678ZM8.9124 33.3076C11.3758 28.7027 16.7431 26.8267 18.3317 26.3606C22.4283 25.1583 25.8648 20.8977 26.3249 16.4487L26.4045 15.6508C26.767 11.9797 27.179 7.82014 30.1325 6.4072C31.6397 5.6872 34.5283 3.75952 35.9025 2.82566C37.3109 4.38375 37.8218 6.33075 38.005 7.41119C36.5402 7.91048 33.5828 9.08041 31.0415 11.1C29.1725 12.5848 28.3231 15.5119 28.8255 18.74C29.3465 22.0892 31.2131 24.7562 33.6998 25.7031L34.3506 25.9447C38.2246 27.3654 46.162 30.2772 44.7809 40.5093C32.5296 39.9375 29.5213 34.7562 27.6739 29.9198C27.4613 29.3618 26.9396 28.9968 26.3444 28.9883C25.7152 28.9629 25.2051 29.3325 24.9724 29.8897C22.7293 35.2832 18.5276 39.5709 14.0669 41.0911C12.9136 41.4846 10.4016 42.1954 8.08886 41.8265C7.22006 38.6462 7.58877 35.7832 8.91283 33.3076H8.9124ZM2.23647 47.5958C2.46371 44.2713 4.23225 41.608 5.61421 40.0021C5.71856 40.8409 5.90329 41.6991 6.15141 42.5743C5.51527 43.5736 4.2855 46.0308 4.82811 49.4803C4.91468 50.0259 5.38541 50.4149 5.92183 50.4149C5.9798 50.4149 6.037 50.4103 6.09497 50.4018C6.70019 50.3076 7.11217 49.7412 7.01789 49.1369C6.62136 46.6181 7.40127 44.8199 7.87973 43.9935C8.54371 44.1015 9.21076 44.1748 9.88323 44.1748C11.4067 44.1748 12.9426 43.8986 14.4482 43.3838C14.735 44.8972 15.2869 47.0148 16.3443 49.3183C15.266 50.8116 11.5729 55.5459 6.52231 57.8789C3.44296 54.4849 2.00282 51.0284 2.23631 47.5958L2.23647 47.5958ZM2.55105 56.3255C3.24593 57.4067 4.07919 58.4771 5.05775 59.5374C4.86296 60.8123 4.64035 63.9238 6.39418 66.9512C6.60056 67.3055 6.97158 67.503 7.35342 67.503C7.54202 67.503 7.73218 67.4552 7.90763 67.3533C8.43711 67.0477 8.61876 66.3709 8.31112 65.8423C6.94918 63.4917 7.09296 61.0066 7.2344 59.9711C8.97664 59.1924 10.5611 58.1768 11.9571 57.0825C12.4997 59.2687 13.823 63.5712 16.5415 67.6466C16.5971 68.4963 16.3861 71.7337 10.4839 74.2223C1.51302 67.1636 1.7194 59.8792 2.55107 56.3255L2.55105 56.3255ZM14.2837 88.4664C7.4934 83.1615 6.21017 76.8011 6.08729 73.2551C7.01792 74.209 8.09158 75.1613 9.30733 76.1051C9.48897 76.9362 9.96976 78.9596 10.7481 81.0294C10.9151 81.4732 11.3379 81.7464 11.7862 81.7464C11.916 81.7464 12.0474 81.7232 12.1765 81.6769C12.7508 81.4624 13.0384 80.8242 12.825 80.2523C12.2299 78.6726 11.8148 77.0837 11.5906 76.1392C12.311 75.8235 12.9788 75.4994 13.5632 75.1622C14.248 76.9641 15.6819 80.3412 17.8547 83.5677C17.6599 84.0994 16.9411 85.541 14.2837 88.4666L14.2837 88.4664ZM26.0342 97.5039C20.3506 94.8661 18.2011 89.5768 17.6537 87.9331C18.4097 86.987 18.9477 86.2076 19.3233 85.567C20.9009 87.5264 22.7739 89.2765 24.945 90.3694V93.5017C24.945 94.1137 25.4404 94.6084 26.0534 94.6084C26.6663 94.6084 27.1618 94.1137 27.1618 93.5017V90.3524C29.1607 89.1131 30.872 87.666 32.3297 86.1381C32.7494 86.8797 33.2557 87.6815 34.072 88.579L34.0573 88.6554C34.0426 88.7024 32.601 93.1798 26.034 97.5038L26.0342 97.5039ZM38.0088 89.0057C35.721 87.6814 34.413 85.418 33.9013 84.367C37.045 80.4945 38.7192 76.5032 39.4187 74.5215C40.2543 75.1805 41.1354 75.7616 42.0328 76.1961C41.9633 77.3213 41.6425 79.3084 40.6376 80.6821C40.2774 81.1752 40.3841 81.8666 40.8796 82.2278C41.0767 82.3713 41.3062 82.44 41.532 82.44C41.8744 82.44 42.2098 82.3605 42.4286 82.065C43.9853 79.9373 44.2257 77.0049 44.2628 75.9916C45.4338 74.9537 46.6195 73.7367 47.7434 72.3793C48.7807 78.0336 43.9992 85.1534 38.0089 89.0058L38.0088 89.0057ZM12.9993 33.6656C13.1454 33.7304 13.2969 33.7605 13.4468 33.7605C13.8727 33.7605 14.2778 33.5151 14.4609 33.1022C14.4741 33.0744 15.7618 30.2546 19.3212 29.2961C19.9133 29.1371 20.2634 28.5305 20.1034 27.9394C19.9442 27.3482 19.3366 27.0002 18.7438 27.1592C14.1748 28.3885 12.5038 32.0496 12.4357 32.2038C12.1868 32.7649 12.4396 33.4177 12.9992 33.6655L12.9993 33.6656ZM32.2079 28.293C32.252 28.3099 36.6237 30.0324 39.1636 33.3291C39.3816 33.6123 39.7109 33.7605 40.0432 33.7605C40.279 33.7605 40.5163 33.6864 40.7172 33.5305C41.2027 33.1586 41.2931 32.464 40.9213 31.9794C37.9949 28.1809 33.2103 26.3073 33.0071 26.2287C32.4389 26.0118 31.7958 26.2919 31.5755 26.8615C31.3545 27.431 31.6374 28.0707 32.2078 28.293L32.2079 28.293Z" fill="#F2F0F0"/>
</svg>
